<mxfile host="app.diagrams.net" modified="2024-10-03T05:30:31.518Z" agent="Mozilla/5.0 (Windows NT 10.0; Win64; x64) AppleWebKit/537.36 (KHTML, like Gecko) Chrome/126.0.0.0 Safari/537.36" etag="vNTt_pzexoflPRzVsb44" version="24.6.2" type="device">
  <diagram name="Page-1" id="NxyQK6BeSM3wtHCcTLHZ">
    <mxGraphModel dx="286" dy="335" grid="0" gridSize="10" guides="1" tooltips="1" connect="1" arrows="1" fold="1" page="0" pageScale="1" pageWidth="850" pageHeight="1100" math="0" shadow="0">
      <root>
        <mxCell id="0" />
        <mxCell id="1" parent="0" />
        <mxCell id="cjFi7BfiGJlgQJo2mt2R-1" value="Dispatcher Servlet&lt;div&gt;(Front Controller)&lt;/div&gt;" style="rounded=1;whiteSpace=wrap;html=1;" vertex="1" parent="1">
          <mxGeometry x="140" y="170" width="120" height="60" as="geometry" />
        </mxCell>
        <mxCell id="cjFi7BfiGJlgQJo2mt2R-2" value="View&lt;div&gt;&lt;br&gt;&lt;/div&gt;" style="rounded=1;whiteSpace=wrap;html=1;" vertex="1" parent="1">
          <mxGeometry x="140" y="285" width="120" height="60" as="geometry" />
        </mxCell>
        <mxCell id="cjFi7BfiGJlgQJo2mt2R-3" value="" style="endArrow=classic;startArrow=classic;html=1;rounded=0;fontSize=12;startSize=8;endSize=8;curved=1;exitX=0.5;exitY=0;exitDx=0;exitDy=0;entryX=0.5;entryY=1;entryDx=0;entryDy=0;" edge="1" parent="1" source="cjFi7BfiGJlgQJo2mt2R-2" target="cjFi7BfiGJlgQJo2mt2R-1">
          <mxGeometry width="50" height="50" relative="1" as="geometry">
            <mxPoint x="172" y="258" as="sourcePoint" />
            <mxPoint x="222" y="208" as="targetPoint" />
          </mxGeometry>
        </mxCell>
        <mxCell id="cjFi7BfiGJlgQJo2mt2R-4" value="" style="endArrow=classic;html=1;rounded=0;fontSize=12;startSize=8;endSize=8;curved=1;entryX=0;entryY=0.25;entryDx=0;entryDy=0;" edge="1" parent="1" target="cjFi7BfiGJlgQJo2mt2R-1">
          <mxGeometry width="50" height="50" relative="1" as="geometry">
            <mxPoint x="50" y="187" as="sourcePoint" />
            <mxPoint x="100" y="156" as="targetPoint" />
          </mxGeometry>
        </mxCell>
        <mxCell id="cjFi7BfiGJlgQJo2mt2R-5" value="Request" style="edgeLabel;html=1;align=center;verticalAlign=middle;resizable=0;points=[];fontSize=12;" vertex="1" connectable="0" parent="cjFi7BfiGJlgQJo2mt2R-4">
          <mxGeometry x="-0.0308" y="1" relative="1" as="geometry">
            <mxPoint as="offset" />
          </mxGeometry>
        </mxCell>
        <mxCell id="cjFi7BfiGJlgQJo2mt2R-6" value="" style="endArrow=classic;html=1;rounded=0;fontSize=12;startSize=8;endSize=8;curved=1;exitX=0;exitY=0.75;exitDx=0;exitDy=0;" edge="1" parent="1" source="cjFi7BfiGJlgQJo2mt2R-1">
          <mxGeometry width="50" height="50" relative="1" as="geometry">
            <mxPoint x="75" y="255" as="sourcePoint" />
            <mxPoint x="50" y="214" as="targetPoint" />
          </mxGeometry>
        </mxCell>
        <mxCell id="cjFi7BfiGJlgQJo2mt2R-7" value="Response" style="edgeLabel;html=1;align=center;verticalAlign=middle;resizable=0;points=[];fontSize=12;" vertex="1" connectable="0" parent="cjFi7BfiGJlgQJo2mt2R-6">
          <mxGeometry x="-0.022" y="-1" relative="1" as="geometry">
            <mxPoint as="offset" />
          </mxGeometry>
        </mxCell>
        <mxCell id="cjFi7BfiGJlgQJo2mt2R-8" value="Controller" style="rounded=1;whiteSpace=wrap;html=1;" vertex="1" parent="1">
          <mxGeometry x="358" y="170" width="120" height="60" as="geometry" />
        </mxCell>
        <mxCell id="cjFi7BfiGJlgQJo2mt2R-9" value="View Resolver" style="rounded=1;whiteSpace=wrap;html=1;" vertex="1" parent="1">
          <mxGeometry x="358" y="285" width="120" height="60" as="geometry" />
        </mxCell>
        <mxCell id="cjFi7BfiGJlgQJo2mt2R-10" value="Handler Mapping" style="rounded=1;whiteSpace=wrap;html=1;" vertex="1" parent="1">
          <mxGeometry x="358" y="55" width="120" height="60" as="geometry" />
        </mxCell>
        <mxCell id="cjFi7BfiGJlgQJo2mt2R-11" value="" style="endArrow=classic;startArrow=classic;html=1;rounded=0;fontSize=12;startSize=8;endSize=8;curved=1;exitX=0;exitY=0;exitDx=0;exitDy=0;entryX=1;entryY=1;entryDx=0;entryDy=0;" edge="1" parent="1" source="cjFi7BfiGJlgQJo2mt2R-9" target="cjFi7BfiGJlgQJo2mt2R-1">
          <mxGeometry width="50" height="50" relative="1" as="geometry">
            <mxPoint x="271" y="248" as="sourcePoint" />
            <mxPoint x="321" y="198" as="targetPoint" />
          </mxGeometry>
        </mxCell>
        <mxCell id="cjFi7BfiGJlgQJo2mt2R-12" value="" style="endArrow=classic;startArrow=classic;html=1;rounded=0;fontSize=12;startSize=8;endSize=8;curved=1;entryX=0;entryY=0.5;entryDx=0;entryDy=0;exitX=1;exitY=0.5;exitDx=0;exitDy=0;" edge="1" parent="1" source="cjFi7BfiGJlgQJo2mt2R-1" target="cjFi7BfiGJlgQJo2mt2R-8">
          <mxGeometry width="50" height="50" relative="1" as="geometry">
            <mxPoint x="271" y="248" as="sourcePoint" />
            <mxPoint x="321" y="198" as="targetPoint" />
          </mxGeometry>
        </mxCell>
        <mxCell id="cjFi7BfiGJlgQJo2mt2R-13" value="" style="endArrow=classic;startArrow=classic;html=1;rounded=0;fontSize=12;startSize=8;endSize=8;curved=1;entryX=0;entryY=0.5;entryDx=0;entryDy=0;exitX=1;exitY=0;exitDx=0;exitDy=0;" edge="1" parent="1" source="cjFi7BfiGJlgQJo2mt2R-1" target="cjFi7BfiGJlgQJo2mt2R-10">
          <mxGeometry width="50" height="50" relative="1" as="geometry">
            <mxPoint x="285" y="200" as="sourcePoint" />
            <mxPoint x="335" y="150" as="targetPoint" />
          </mxGeometry>
        </mxCell>
      </root>
    </mxGraphModel>
  </diagram>
</mxfile>
